PathFileType	4	(X/Y/Z)	C:\Users\Basilio\Documents\Thesis Gigler\squatting_fais\c3dfiles\019\SLS_back_pre2\markers_experimental.trc
DataRate	CameraRate	NumFrames	NumMarkers	Units	OrigDataRate	OrigDataStartFrame	OrigNumFrames
200.000000	200.000000	4	59	mm	200.000000	926	1482
Frame#	Time	FHD			LBHD			RBHD			C7			T10			CLAV			LSHO			LUUPA			LMUPA			LDUPA			LLEP			LMEP			LRAD			LUL			LRFIN			RSHO			RUPA1			RMUPA			RDUPA			RLEP			RMEP			RRAD			RUL			RUFIN			LASI			RASI			USACR			LSACR			RSACR			LTHI1			LTHI2			LTHI3			LTHI4			LLFC			LTIB1			LTIB2			LTIB3			LTIB4			LLMAL			LMMAL			LHEE			LMT1			LMT2			LMT5			RTHI			RTHI2			RTHI3			RTHI4			RLFC			RTIB1			RTIB2			RTIB3			RTIB4			RLMAL			RMMAL			RHEE			RMT1			RMT2			RMT5			
		X1	Y1	Z1	X2	Y2	Z2	X3	Y3	Z3	X4	Y4	Z4	X5	Y5	Z5	X6	Y6	Z6	X7	Y7	Z7	X8	Y8	Z8	X9	Y9	Z9	X10	Y10	Z10	X11	Y11	Z11	X12	Y12	Z12	X13	Y13	Z13	X14	Y14	Z14	X15	Y15	Z15	X16	Y16	Z16	X17	Y17	Z17	X18	Y18	Z18	X19	Y19	Z19	X20	Y20	Z20	X21	Y21	Z21	X22	Y22	Z22	X23	Y23	Z23	X24	Y24	Z24	X25	Y25	Z25	X26	Y26	Z26	X27	Y27	Z27	X28	Y28	Z28	X29	Y29	Z29	X30	Y30	Z30	X31	Y31	Z31	X32	Y32	Z32	X33	Y33	Z33	X34	Y34	Z34	X35	Y35	Z35	X36	Y36	Z36	X37	Y37	Z37	X38	Y38	Z38	X39	Y39	Z39	X40	Y40	Z40	X41	Y41	Z41	X42	Y42	Z42	X43	Y43	Z43	X44	Y44	Z44	X45	Y45	Z45	X46	Y46	Z46	X47	Y47	Z47	X48	Y48	Z48	X49	Y49	Z49	X50	Y50	Z50	X51	Y51	Z51	X52	Y52	Z52	X53	Y53	Z53	X54	Y54	Z54	X55	Y55	Z55	X56	Y56	Z56	X57	Y57	Z57	X58	Y58	Z58	X59	Y59	Z59	

927	4.63	-47.2987403869629	1306.05224609375	-642.3652954101564	-172.8606262207032	1269.350952148438	-786.5662841796877	-178.3070831298828	1265.027465820313	-646.8746337890626	-226.9244995117188	1134.124389648438	-704.6748657226564	-391.9713439941407	910.111022949219	-714.0443115234376	-111.0116271972657	1044.530029296875	-710.3620605468751	-147.7947692871094	1118.885375976563	-834.8255004882815	-32.86000061035157	1082.517211914063	-888.669616699219	-8.491428375244142	1073.055297851563	-847.5459594726565	32.44190979003907	1074.641845703125	-891.8239746093752	101.5903015136719	1037.050048828125	-922.5200805664065	94.34938049316408	980.2844848632815	-908.9622802734377	342.5985412597657	1049.979370117188	-850.6065063476565	349.2696533203126	1005.5986328125	-898.7749023437502	415.4118957519532	1069.123168945313	-854.1053466796877	-132.3624725341797	1121.959716796875	-593.9773559570314	-27.28514671325684	1050.181640625	-491.0720214843751	0.006790161598473789	1077.610473632813	-523.3522949218751	41.5140609741211	1037.543334960938	-494.1022338867189	118.9629364013672	1033.594360351563	-510.5357055664064	105.8964614868164	976.3656005859377	-527.5938720703126	349.0623779296876	1077.869018554688	-595.9605102539064	371.2246093750001	1030.986694335938	-548.6693115234376	435.0161132812501	1094.164306640625	-587.9356689453126	-380.6443176269532	666.8429565429689	-840.0819091796877	-359.1878967285157	673.8893432617189	-640.5700683593751	-472.6102294921876	797.0919189453127	-725.8847045898439	-496.3294372558595	773.0163574218752	-752.5379638671876	-492.6449279785157	770.5059204101565	-694.7412719726564	-456.8602600097657	443.5700683593751	-940.8432617187502	-409.4385070800782	372.4830627441407	-953.161560058594	-365.9007263183594	374.6936645507813	-933.5521240234377	-431.2515258789064	314.2286071777344	-950.5173950195315	-437.0066833496095	236.171615600586	-942.437194824219	-550.8443603515626	161.7731323242188	-902.9698486328127	-593.0004272460939	216.6056518554688	-963.743591308594	-596.2505493164064	182.6992797851563	-937.317077636719	-673.9979248046876	187.671859741211	-901.6091918945315	-801.3474121093752	267.7748107910157	-928.6011352539065	-788.5921020507815	256.8245849609376	-844.404235839844	-829.9449462890627	333.3515014648438	-879.5349731445315	-872.7168579101565	129.8880462646485	-840.7293701171877	-878.489929199219	124.0587768554688	-880.0147094726565	-901.733093261719	164.2835998535157	-932.804870605469	-359.1473083496094	558.1207885742189	-563.0087280273439	-295.8399963378907	564.3527832031251	-579.2191772460939	-287.2346801757813	594.4182739257814	-598.4379272460939	-240.5253906250001	503.0986328125001	-584.7892456054689	-143.8121490478516	396.8739624023439	-640.3304443359376	-184.7252197265625	250.8095703125001	-723.3854980468751	-268.9635620117188	205.9470520019532	-664.8079833984376	-244.4887695312501	187.3552398681641	-704.8189697265626	-282.2558288574219	172.9757385253907	-748.4930419921876	-373.5540771484376	121.8699340820313	-697.7125244140626	-363.2309875488282	135.4369659423828	-776.0669555664065	-460.1045532226564	103.5484390258789	-754.1604614257814	-258.7622985839844	56.9999237060547	-784.2330322265627	-253.4149780273438	57.96554946899415	-738.4022827148439	-292.9169311523438	46.74642181396485	-683.1954956054689	
928	4.635	-47.16440200805665	1305.784301757813	-642.3970336914064	-172.8663177490235	1269.1513671875	-786.6550903320315	-178.2677764892578	1264.807861328125	-646.9722900390626	-226.8337860107422	1133.942504882813	-704.7553100585939	-391.9519653320314	909.9893188476565	-714.1701049804689	-110.9503402709961	1044.317993164063	-710.5189208984376	-147.7348175048828	1118.723022460938	-834.8079833984377	-32.81439208984376	1082.37109375	-888.6513671875002	-8.378250122070314	1072.881958007813	-847.507263183594	32.56627655029298	1074.501220703125	-891.7639160156252	101.7148818969727	1036.936645507813	-922.415222167969	94.53874969482423	980.1577758789065	-908.8745727539065	342.7512207031251	1049.934448242188	-850.4754638671877	349.4309997558594	1005.578369140625	-898.6299438476565	415.6664123535157	1069.022583007813	-853.9440917968752	-132.1813201904297	1121.832641601563	-594.2645263671876	-27.28722572326661	1050.248413085938	-491.0874633789064	0.1255429089069367	1077.626831054688	-523.4477539062501	41.51472854614259	1037.490966796875	-494.2625732421876	118.8894500732422	1033.620971679688	-510.569549560547	105.9454574584961	976.3702392578127	-527.3840332031251	349.0316772460938	1077.883911132813	-596.0256347656251	371.2218322753907	1031.08447265625	-548.6940917968751	435.1129150390626	1093.7998046875	-588.0255126953126	-380.7222900390626	666.7789916992189	-840.213806152344	-359.1211242675782	673.7928466796876	-640.7387084960939	-472.5749511718751	797.0590820312502	-726.0018920898439	-496.6512145996095	773.0941162109377	-752.6273193359376	-492.9743957519532	770.2448730468752	-694.8686523437501	-456.748260498047	443.5511779785157	-940.9724731445315	-409.4015197753907	372.4132385253907	-953.1921997070315	-365.7776489257813	374.6723327636719	-933.569030761719	-431.0469970703126	314.1271972656251	-950.5286865234377	-436.8995971679689	236.1185607910157	-942.4648437500002	-551.8251342773439	162.0941467285157	-904.826843261719	-592.8665161132814	216.4410858154297	-963.8403930664065	-596.1326293945314	182.5249481201172	-937.440856933594	-673.8905029296876	187.4644165039063	-901.8750610351565	-801.247253417969	267.4992980957032	-928.7557373046877	-788.4636230468752	256.5106811523438	-844.585632324219	-829.8441162109377	332.9775390625001	-879.7578735351565	-872.780212402344	130.0965881347657	-840.9519042968752	-878.5345458984377	123.7912826538086	-880.108337402344	-901.6542968750002	163.9842224121094	-932.9481201171877	-359.0974731445313	558.1677246093751	-563.2040405273439	-295.7764282226563	564.3624267578126	-579.4058227539064	-287.2800292968751	594.4068603515626	-598.5934448242189	-240.5361785888672	503.1513977050782	-585.0980224609376	-143.7539520263672	396.9356384277345	-640.4613647460939	-184.7288970947266	250.8389282226563	-723.5349121093751	-268.9895935058594	205.9949188232422	-664.8680419921876	-244.4433746337891	187.3164215087891	-704.8549194335939	-282.3167724609376	172.9812622070313	-748.5215454101564	-373.5700683593751	121.9192199707032	-697.7473144531251	-363.4224853515626	135.4842987060547	-775.9495239257815	-460.0854797363282	103.5288696289063	-754.1832885742189	-258.8237915039063	56.93341445922853	-784.2207031250002	-253.4638061523438	57.85451507568361	-738.4284057617189	-292.9041442871094	46.73411941528321	-683.1980590820314	
929	4.64	-47.11775970458985	1305.760986328125	-642.5485229492189	-172.4789733886719	1268.939575195313	-786.7576904296877	-178.1682739257813	1264.676147460938	-646.9929199218751	-226.6526947021485	1133.819702148438	-704.8197021484376	-391.9276733398439	909.9000244140627	-714.2689208984376	-110.6914978027344	1044.195068359375	-710.3638305664064	-147.6808319091797	1118.610229492188	-834.892028808594	-32.68707656860352	1082.283447265625	-888.6549072265627	-8.406364440917971	1072.512451171875	-847.4749145507815	32.63728713989259	1074.412719726563	-891.7391357421877	101.8589553833008	1036.880981445313	-922.3282470703127	94.7223587036133	980.1071777343752	-908.8194580078127	342.8352966308594	1049.8935546875	-850.3408203125002	349.5405273437501	1005.487182617188	-898.4919433593752	415.8367309570314	1068.992797851563	-853.7756347656252	-132.3452453613282	1121.826782226563	-594.2113037109376	-27.34558105468751	1050.251831054688	-491.2076416015626	0.1332473009824753	1077.631591796875	-523.5335693359376	41.47655105590821	1037.53173828125	-494.4396057128907	118.9656982421875	1033.68115234375	-510.637420654297	106.0149841308594	976.4261474609377	-527.5761718750001	349.0911865234376	1078.003295898438	-596.0046386718751	371.2521972656251	1031.220458984375	-548.6190795898439	435.1442871093751	1093.749633789063	-588.1162109375001	-380.8148193359376	666.7441406250001	-840.3629150390627	-359.1273498535157	673.5288085937501	-640.8062744140626	-472.6520996093751	796.9771118164065	-726.0762329101564	-496.5936279296876	772.9877929687502	-752.6901245117189	-492.9446716308595	770.2390747070315	-694.9010620117189	-456.6596984863282	443.515106201172	-941.037780761719	-409.2329406738282	372.4301147460938	-953.204528808594	-365.6427307128907	374.6575927734376	-933.5605468750002	-430.8545837402345	314.1173095703126	-950.5969848632815	-436.8366699218751	236.1571502685547	-942.5257568359377	-551.6585693359376	162.026611328125	-905.0239868164065	-592.7588500976564	216.2850189208985	-963.9798583984377	-596.0900268554689	182.4779205322266	-937.533874511719	-673.8314819335939	187.3387451171875	-902.2877197265627	-801.181579589844	267.1971130371094	-928.9866943359377	-788.399353027344	256.2171630859376	-844.7368164062502	-830.201110839844	332.7581481933594	-880.1816406250002	-872.6555786132815	129.6427307128907	-841.005065917969	-878.4462890625002	123.4873580932617	-880.3253173828127	-901.4826660156252	163.6472473144532	-933.0877075195315	-359.0820312500001	558.1356811523439	-563.2660522460939	-295.8416748046876	564.4076538085939	-579.6048583984376	-287.2320861816407	594.4888916015626	-598.7947387695314	-240.4774169921876	503.2049560546876	-585.2965087890626	-143.6885681152344	396.962615966797	-640.6495361328126	-184.7134552001953	250.8910064697266	-723.6517944335939	-268.9443969726563	206.0135955810547	-664.9256591796876	-244.4255828857422	187.3598022460938	-704.9867553710939	-282.2102661132813	172.8992614746094	-748.5612182617189	-373.5135498046876	121.8892974853516	-697.7885742187501	-362.9215087890626	135.3401336669922	-776.170104980469	-460.0805664062501	103.5227584838867	-754.1866455078126	-258.7556152343751	56.91170883178712	-784.2210693359377	-253.4450225830079	57.87738037109376	-738.4069824218751	-292.9359741210938	46.76132583618165	-683.2505493164064	
930	4.645	-47.07084274291993	1305.691650390625	-642.4710693359376	-172.529052734375	1268.80126953125	-786.825378417969	-178.1055145263672	1264.577758789063	-647.0742187500001	-226.7522277832032	1133.670166015625	-704.8742065429689	-392.0321044921876	909.9084472656252	-714.3770141601564	-110.717758178711	1044.076049804688	-710.3835449218751	-147.6500244140625	1118.578125	-834.8582153320315	-32.54715728759766	1082.210205078125	-888.6218261718752	-8.335879325866701	1072.450317382813	-847.497741699219	32.82999420166016	1074.329711914063	-891.6875610351565	102.0517196655274	1036.791259765625	-922.2447509765627	94.83589935302736	980.025817871094	-908.762390136719	342.9130249023438	1049.89599609375	-850.2210083007815	349.6452941894532	1005.513916015625	-898.3735351562502	415.7677001953126	1069.054321289063	-853.700134277344	-132.1482391357422	1121.64794921875	-594.3886718750001	-27.26888465881348	1050.308715820313	-491.2564392089845	0.05592597275972368	1077.58056640625	-523.6185913085939	41.52983856201173	1037.646606445313	-494.3051147460939	119.0236053466797	1033.75439453125	-510.672088623047	106.0639266967774	976.4321899414065	-527.3663330078126	349.0982055664063	1078.061645507813	-596.1083374023439	371.2288208007813	1031.34033203125	-548.6613159179689	434.9907226562501	1094.417846679688	-587.4666137695314	-380.9560852050782	666.7716064453126	-840.4291992187502	-359.0549316406251	673.6115112304689	-640.9494628906251	-472.7262268066407	796.9704589843752	-726.1630859375001	-496.4781188964845	772.8498535156252	-752.8126831054689	-492.9446105957032	770.2465820312502	-694.8925781250001	-456.4922180175782	443.5009765625001	-941.099060058594	-409.0926208496095	372.3925781250001	-953.1950683593752	-365.5102539062501	374.6840515136719	-933.5659790039065	-430.7379150390626	314.0812683105469	-950.6889648437502	-436.6396789550782	236.2029418945313	-942.6112060546877	-551.3806152343751	161.9104309082032	-905.1426391601565	-592.6486816406251	216.2562561035157	-964.0703735351565	-595.8537597656251	182.3755645751953	-937.6748046875002	-673.6792602539064	187.1776123046875	-902.5297851562502	-801.1416015625002	266.9955444335938	-929.1904296875002	-788.1250610351565	255.7991638183594	-844.9304199218752	-830.346374511719	332.4822998046876	-880.4898681640627	-872.534851074219	129.4300231933594	-841.1175537109377	-878.298034667969	123.208740234375	-880.3835449218752	-901.331970214844	163.2842864990235	-933.241638183594	-359.0305480957032	558.1982421875001	-563.4406738281251	-295.7844543457032	564.4450683593751	-579.8045043945314	-287.3009033203126	594.4974975585939	-598.9732666015626	-240.4251251220704	503.2984619140626	-585.5064086914064	-143.6370239257813	397.083221435547	-640.8461914062501	-184.597885131836	250.9322662353516	-723.7147827148439	-268.9230346679688	206.0267181396485	-665.0273437500001	-244.4053955078126	187.4438781738282	-705.0015869140626	-282.2254333496094	173.0624237060547	-748.5798339843751	-373.4869079589844	121.9108276367188	-697.7805786132814	-362.8670349121094	135.3094940185547	-776.2200317382815	-460.1287231445314	103.5354461669922	-754.1909790039064	-258.7538452148438	56.88928222656251	-784.2229003906252	-253.4081268310547	57.89171218872072	-738.3942871093751	-292.9074096679688	46.73418045043946	-683.2390747070314	
